<svg xmlns="http://www.w3.org/2000/svg" width="1200" height="520" viewBox="0 0 1200 520">
<rect width="1200" height="520" fill="white"/>
<g font-family="Arial, sans-serif" font-size="18" fill="#111" stroke="#333" stroke-width="2">
<rect x="40" y="210" width="150" height="60" rx="10" fill="#f6f6f6"/><text x="115" y="245" text-anchor="middle">Operator</text>
<rect x="240" y="210" width="190" height="60" rx="10" fill="#f6f6f6"/><text x="335" y="245" text-anchor="middle">Registration Portal</text>
<rect x="480" y="210" width="220" height="60" rx="10" fill="#f6f6f6"/><text x="590" y="245" text-anchor="middle">Program API</text>
<rect x="760" y="90" width="190" height="60" rx="10" fill="#f6f6f6"/><text x="855" y="125" text-anchor="middle">Scoring Engine</text>
<rect x="760" y="210" width="190" height="60" rx="10" fill="#f6f6f6"/><text x="855" y="245" text-anchor="middle">Qualified Registry</text>
<rect x="760" y="330" width="190" height="60" rx="10" fill="#f6f6f6"/><text x="855" y="365" text-anchor="middle">Alert Engine</text>
<rect x="1010" y="60" width="150" height="60" rx="10" fill="#f6f6f6"/><text x="1085" y="95" text-anchor="middle">Public Ranking</text>
<rect x="1010" y="150" width="150" height="60" rx="10" fill="#f6f6f6"/><text x="1085" y="185" text-anchor="middle">Reward Filter</text>
<rect x="1010" y="240" width="150" height="60" rx="10" fill="#f6f6f6"/><text x="1085" y="275" text-anchor="middle">Reward Payout</text>
<rect x="1010" y="330" width="150" height="60" rx="10" fill="#f6f6f6"/><text x="1085" y="365" text-anchor="middle">Notifications</text>
<rect x="480" y="70" width="180" height="60" rx="10" fill="#f6f6f6"/><text x="570" y="105" text-anchor="middle">Multi-region Probes</text>
<rect x="480" y="350" width="180" height="60" rx="10" fill="#f6f6f6"/><text x="570" y="385" text-anchor="middle">Optional Node Agent</text>
<line x1="190" y1="240" x2="240" y2="240"/>
<line x1="430" y1="240" x2="480" y2="240"/>
<line x1="570" y1="130" x2="760" y2="120"/>
<line x1="700" y1="240" x2="760" y2="240"/>
<line x1="570" y1="350" x2="760" y2="360"/>
<line x1="950" y1="120" x2="1010" y2="90"/>
<line x1="950" y1="120" x2="1010" y2="180"/>
<line x1="950" y1="240" x2="1010" y2="270"/>
<line x1="950" y1="360" x2="1010" y2="360"/>
</g></svg>